#Comment line ignore any data following # character 
#Hierarchical Translation and Rotation (.htr) file 
[Header]	
#Header keywords are followed by a single value 
FileType HTR		#Single word string
DataType HTRS		#Translation followed by rotation and scale data
FileVersion 1		#integer
NumSegments 84		#integer
NumFrames 2		#integer
DataFrameRate 30		#integer, data frame rate in this file
EulerRotationOrder ZYX
CalibrationUnits mm
RotationUnits Degrees
GlobalAxisofGravity Y
BoneLengthAxis Y
ScaleFactor 1.00
[SegmentNames&Hierarchy]
#CHILD	PARENT
MASTER GLOBAL
root MASTER
chest root
L_mid_tent01 root
R_mid_tent01 root
spine01 root
Bip01_Neck chest
L_humerus chest
R_humerus chest
weapon_bone chest
Bip01_Head Bip01_Neck
eye_left_bone Bip01_Head
eye_right_bone Bip01_Head
L_forearm L_humerus
L_front_hand L_forearm
L_weapon_bone L_forearm
L_front_hand01_01 L_front_hand
L_front_hand02_01 L_front_hand
L_front_hand03_01 L_front_hand
L_front_hand01_02 L_front_hand01_01
L_front_hand02_02 L_front_hand02_01
L_front_hand03_02 L_front_hand03_01
R_forearm R_humerus
R_front_hand R_forearm
R_weapon_bone R_forearm
R_front_hand01_01 R_front_hand
R_front_hand02_01 R_front_hand
R_front_hand03_01 R_front_hand
R_front_hand01_02 R_front_hand01_01
R_front_hand02_02 R_front_hand02_01
R_front_hand03_02 R_front_hand03_01
null_rope01_connect L_mid_tent01
Rope1_Seg01 null_rope01_connect
Rope1_Seg02 Rope1_Seg01
Rope1_Seg03 Rope1_Seg02
Rope1_Seg04 Rope1_Seg03
Rope1_Seg05 Rope1_Seg04
Rope1_Seg06 Rope1_Seg05
Rope1_Seg07 Rope1_Seg06
Rope1_Seg09 Rope1_Seg07
L_mid_hand01 Rope1_Seg09
L_mid_hand02 Rope1_Seg09
L_mid_hand03 Rope1_Seg09
null_rope02_connect R_mid_tent01
Rope2_Seg01 null_rope02_connect
Rope2_Seg02 Rope2_Seg01
Rope2_Seg03 Rope2_Seg02
Rope2_Seg04 Rope2_Seg03
Rope2_Seg05 Rope2_Seg04
Rope2_Seg06 Rope2_Seg05
Rope2_Seg07 Rope2_Seg06
Rope2_Seg09 Rope2_Seg07
R_mid_hand01 Rope2_Seg09
R_mid_hand02 Rope2_Seg09
R_mid_hand03 Rope2_Seg09
spine02 spine01
spine03 spine02
pelvis spine03
null_rope03_connect pelvis
null_rope04_connect pelvis
Rope3_Seg01 null_rope03_connect
Rope3_Seg02 Rope3_Seg01
Rope3_Seg03 Rope3_Seg02
Rope3_Seg04 Rope3_Seg03
Rope3_Seg05 Rope3_Seg04
Rope3_Seg06 Rope3_Seg05
Rope3_Seg07 Rope3_Seg06
Rope3_Seg08 Rope3_Seg07
Rope3_Seg09 Rope3_Seg08
R_rear_hand01 Rope3_Seg09
R_rear_hand02 Rope3_Seg09
R_rear_hand03 Rope3_Seg09
Rope4_Seg01 null_rope04_connect
Rope4_Seg02 Rope4_Seg01
Rope4_Seg03 Rope4_Seg02
Rope4_Seg04 Rope4_Seg03
Rope4_Seg05 Rope4_Seg04
Rope4_Seg06 Rope4_Seg05
Rope4_Seg07 Rope4_Seg06
Rope4_Seg08 Rope4_Seg07
Rope4_Seg09 Rope4_Seg08
L_rear_hand01 Rope4_Seg09
L_rear_hand02 Rope4_Seg09
L_rear_hand03 Rope4_Seg09
[BasePosition]
#SegmentName Tx, Ty, Tz, Rx, Ry, Rz, BoneLength
MASTER 0.000000 0.000000 0.000000 -90.000000 0.000000 0.000000 10.000000 
root 0.000000 0.000000 0.000000 0.000000 0.000000 0.000000 10.000000 
chest 0.000000 0.000000 0.000000 0.000000 0.000000 0.000000 10.000000 
L_mid_tent01 0.000000 0.000000 0.000000 0.000000 0.000000 0.000000 10.000000 
R_mid_tent01 0.000000 0.000000 0.000000 0.000000 0.000000 0.000000 10.000000 
spine01 0.000000 0.000000 0.000000 0.000000 0.000000 0.000000 10.000000 
Bip01_Neck 0.000000 0.000000 0.000000 0.000000 0.000000 0.000000 10.000000 
L_humerus 0.000000 0.000000 0.000000 0.000000 0.000000 0.000000 10.000000 
R_humerus 0.000000 0.000000 0.000000 0.000000 0.000000 0.000000 10.000000 
weapon_bone 0.000000 0.000000 0.000000 0.000000 0.000000 0.000000 10.000000 
Bip01_Head 0.000000 0.000000 0.000000 0.000000 0.000000 0.000000 10.000000 
eye_left_bone 0.000000 0.000000 0.000000 0.000000 0.000000 0.000000 10.000000 
eye_right_bone 0.000000 0.000000 0.000000 0.000000 0.000000 0.000000 10.000000 
L_forearm 0.000000 0.000000 0.000000 0.000000 0.000000 0.000000 10.000000 
L_front_hand 0.000000 0.000000 0.000000 0.000000 0.000000 0.000000 10.000000 
L_weapon_bone 0.000000 0.000000 0.000000 0.000000 0.000000 0.000000 10.000000 
L_front_hand01_01 0.000000 0.000000 0.000000 0.000000 0.000000 0.000000 10.000000 
L_front_hand02_01 0.000000 0.000000 0.000000 0.000000 0.000000 0.000000 10.000000 
L_front_hand03_01 0.000000 0.000000 0.000000 0.000000 0.000000 0.000000 10.000000 
L_front_hand01_02 0.000000 0.000000 0.000000 0.000000 0.000000 0.000000 10.000000 
L_front_hand02_02 0.000000 0.000000 0.000000 0.000000 0.000000 0.000000 10.000000 
L_front_hand03_02 0.000000 0.000000 0.000000 0.000000 0.000000 0.000000 10.000000 
R_forearm 0.000000 0.000000 0.000000 0.000000 0.000000 0.000000 10.000000 
R_front_hand 0.000000 0.000000 0.000000 0.000000 0.000000 0.000000 10.000000 
R_weapon_bone 0.000000 0.000000 0.000000 0.000000 0.000000 0.000000 10.000000 
R_front_hand01_01 0.000000 0.000000 0.000000 0.000000 0.000000 0.000000 10.000000 
R_front_hand02_01 0.000000 0.000000 0.000000 0.000000 0.000000 0.000000 10.000000 
R_front_hand03_01 0.000000 0.000000 0.000000 0.000000 0.000000 0.000000 10.000000 
R_front_hand01_02 0.000000 0.000000 0.000000 0.000000 0.000000 0.000000 10.000000 
R_front_hand02_02 0.000000 0.000000 0.000000 0.000000 0.000000 0.000000 10.000000 
R_front_hand03_02 0.000000 0.000000 0.000000 0.000000 0.000000 0.000000 10.000000 
null_rope01_connect 0.000000 0.000000 0.000000 0.000000 0.000000 0.000000 10.000000 
Rope1_Seg01 0.000000 0.000000 0.000000 0.000000 0.000000 0.000000 10.000000 
Rope1_Seg02 0.000000 0.000000 0.000000 0.000000 0.000000 0.000000 10.000000 
Rope1_Seg03 0.000000 0.000000 0.000000 0.000000 0.000000 0.000000 10.000000 
Rope1_Seg04 0.000000 0.000000 0.000000 0.000000 0.000000 0.000000 10.000000 
Rope1_Seg05 0.000000 0.000000 0.000000 0.000000 0.000000 0.000000 10.000000 
Rope1_Seg06 0.000000 0.000000 0.000000 0.000000 0.000000 0.000000 10.000000 
Rope1_Seg07 0.000000 0.000000 0.000000 0.000000 0.000000 0.000000 10.000000 
Rope1_Seg09 0.000000 0.000000 0.000000 0.000000 0.000000 0.000000 10.000000 
L_mid_hand01 0.000000 0.000000 0.000000 0.000000 0.000000 0.000000 10.000000 
L_mid_hand02 0.000000 0.000000 0.000000 0.000000 0.000000 0.000000 10.000000 
L_mid_hand03 0.000000 0.000000 0.000000 0.000000 0.000000 0.000000 10.000000 
null_rope02_connect 0.000000 0.000000 0.000000 0.000000 0.000000 0.000000 10.000000 
Rope2_Seg01 0.000000 0.000000 0.000000 0.000000 0.000000 0.000000 10.000000 
Rope2_Seg02 0.000000 0.000000 0.000000 0.000000 0.000000 0.000000 10.000000 
Rope2_Seg03 0.000000 0.000000 0.000000 0.000000 0.000000 0.000000 10.000000 
Rope2_Seg04 0.000000 0.000000 0.000000 0.000000 0.000000 0.000000 10.000000 
Rope2_Seg05 0.000000 0.000000 0.000000 0.000000 0.000000 0.000000 10.000000 
Rope2_Seg06 0.000000 0.000000 0.000000 0.000000 0.000000 0.000000 10.000000 
Rope2_Seg07 0.000000 0.000000 0.000000 0.000000 0.000000 0.000000 10.000000 
Rope2_Seg09 0.000000 0.000000 0.000000 0.000000 0.000000 0.000000 10.000000 
R_mid_hand01 0.000000 0.000000 0.000000 0.000000 0.000000 0.000000 10.000000 
R_mid_hand02 0.000000 0.000000 0.000000 0.000000 0.000000 0.000000 10.000000 
R_mid_hand03 0.000000 0.000000 0.000000 0.000000 0.000000 0.000000 10.000000 
spine02 0.000000 0.000000 0.000000 0.000000 0.000000 0.000000 10.000000 
spine03 0.000000 0.000000 0.000000 0.000000 0.000000 0.000000 10.000000 
pelvis 0.000000 0.000000 0.000000 0.000000 0.000000 0.000000 10.000000 
null_rope03_connect 0.000000 0.000000 0.000000 0.000000 0.000000 0.000000 10.000000 
null_rope04_connect 0.000000 0.000000 0.000000 0.000000 0.000000 0.000000 10.000000 
Rope3_Seg01 0.000000 0.000000 0.000000 0.000000 0.000000 0.000000 10.000000 
Rope3_Seg02 0.000000 0.000000 0.000000 0.000000 0.000000 0.000000 10.000000 
Rope3_Seg03 0.000000 0.000000 0.000000 0.000000 0.000000 0.000000 10.000000 
Rope3_Seg04 0.000000 0.000000 0.000000 0.000000 0.000000 0.000000 10.000000 
Rope3_Seg05 0.000000 0.000000 0.000000 0.000000 0.000000 0.000000 10.000000 
Rope3_Seg06 0.000000 0.000000 0.000000 0.000000 0.000000 0.000000 10.000000 
Rope3_Seg07 0.000000 0.000000 0.000000 0.000000 0.000000 0.000000 10.000000 
Rope3_Seg08 0.000000 0.000000 0.000000 0.000000 0.000000 0.000000 10.000000 
Rope3_Seg09 0.000000 0.000000 0.000000 0.000000 0.000000 0.000000 10.000000 
R_rear_hand01 0.000000 0.000000 0.000000 0.000000 0.000000 0.000000 10.000000 
R_rear_hand02 0.000000 0.000000 0.000000 0.000000 0.000000 0.000000 10.000000 
R_rear_hand03 0.000000 0.000000 0.000000 0.000000 0.000000 0.000000 10.000000 
Rope4_Seg01 0.000000 0.000000 0.000000 0.000000 0.000000 0.000000 10.000000 
Rope4_Seg02 0.000000 0.000000 0.000000 0.000000 0.000000 0.000000 10.000000 
Rope4_Seg03 0.000000 0.000000 0.000000 0.000000 0.000000 0.000000 10.000000 
Rope4_Seg04 0.000000 0.000000 0.000000 0.000000 0.000000 0.000000 10.000000 
Rope4_Seg05 0.000000 0.000000 0.000000 0.000000 0.000000 0.000000 10.000000 
Rope4_Seg06 0.000000 0.000000 0.000000 0.000000 0.000000 0.000000 10.000000 
Rope4_Seg07 0.000000 0.000000 0.000000 0.000000 0.000000 0.000000 10.000000 
Rope4_Seg08 0.000000 0.000000 0.000000 0.000000 0.000000 0.000000 10.000000 
Rope4_Seg09 0.000000 0.000000 0.000000 0.000000 0.000000 0.000000 10.000000 
L_rear_hand01 0.000000 0.000000 0.000000 0.000000 0.000000 0.000000 10.000000 
L_rear_hand02 0.000000 0.000000 0.000000 0.000000 0.000000 0.000000 10.000000 
L_rear_hand03 0.000000 0.000000 0.000000 0.000000 0.000000 0.000000 10.000000 
#Beginning of Data. Separated by tabs
#Fr	Tx	Ty	Tz	Rx	Ry	Rz	SF
[MASTER]
40 0.000003 -0.000009 -4936.964355 0.001660 0.001660 0.001660 4936.964844
41 0.000003 -0.000007 -4898.531250 0.001660 0.001660 0.001660 4898.531738
[root]
40 -16.502304 9.295563 1448.352539 -91.728905 -11.584517 -89.471611 1448.476440
41 -16.502304 9.309278 1448.346069 -91.728905 -11.584499 -89.471634 1448.469971
[chest]
40 -84.512650 -34.090519 0.000000 -2.170494 -0.006438 168.239624 91.129311
41 -84.512650 -34.090519 0.000000 -2.182034 0.120802 167.142593 91.129311
[L_mid_tent01]
40 27.299206 22.178886 -249.918671 -20.661390 12.026066 12.983059 252.381638
41 27.299206 22.178900 -249.918686 -21.117207 10.058218 9.325018 252.381653
[R_mid_tent01]
40 23.228794 24.509907 226.238495 -165.192215 -17.956060 24.056818 228.744751
41 23.228794 24.509907 226.238495 -164.272995 -15.674794 21.024126 228.744751
[spine01]
40 -0.361383 -0.195265 0.000000 0.001947 0.001312 22.051838 0.410763
41 -0.361383 -0.195265 0.000000 0.001952 0.001303 22.560982 0.410763
[Bip01_Neck]
40 165.484543 71.581718 0.000119 176.643677 -1.657967 43.431911 180.302734
41 165.484543 71.581718 0.000119 176.643677 -1.657967 43.431911 180.302734
[L_humerus]
40 -13.983130 -135.272980 -120.471481 -5.480103 68.873466 84.573517 181.680161
41 -13.983130 -135.272980 -120.471481 -6.633648 65.380234 83.273766 181.680161
[R_humerus]
40 -13.983309 -135.273102 125.287651 27.897188 -69.888863 67.752296 184.909012
41 -13.983309 -135.273102 125.287651 26.216810 -66.240204 69.486427 184.909012
[weapon_bone]
40 235.964890 -300.705902 0.000000 0.000000 -89.951546 -128.212341 382.234833
41 235.964890 -300.705902 0.000000 0.000000 -89.951546 -128.212341 382.234833
[Bip01_Head]
40 213.444321 185.715454 11.776968 4.962490 2.797846 -43.898743 283.173798
41 213.444290 185.715424 11.776959 4.962490 2.797846 -43.898743 283.173767
[eye_left_bone]
40 -24.626970 125.451866 -64.772606 0.000000 -90.000000 -99.840431 143.318359
41 -24.626970 125.451866 -64.772606 0.000000 -90.000000 -99.840431 143.318359
[eye_right_bone]
40 -24.626970 125.451866 64.327362 0.000000 -89.965736 80.156380 143.117676
41 -24.626970 125.451866 64.327362 0.000000 -89.965736 80.156380 143.117676
[L_forearm]
40 322.776093 0.000000 -0.000119 0.000396 -0.002314 -109.419968 322.776093
41 322.776093 0.000000 -0.000119 0.000413 -0.002311 -110.247955 322.776093
[L_front_hand]
40 241.149185 -0.042021 -3.300071 -178.667953 -1.835447 -27.422342 241.171753
41 241.149185 -0.042021 -3.300071 -178.667953 -1.835447 -27.422342 241.171753
[L_weapon_bone]
40 156.183838 0.000000 0.000000 0.000014 0.000007 0.000001 156.183838
41 156.183838 0.000000 0.000000 0.000014 0.000007 0.000001 156.183838
[L_front_hand01_01]
40 86.095154 20.947098 -0.655860 -0.366594 -0.477154 75.385574 88.609184
41 86.095154 20.947098 -0.655860 -0.366594 -0.477154 75.385574 88.609184
[L_front_hand02_01]
40 86.935165 -11.437475 24.513514 154.399796 -59.883835 -61.369587 91.046425
41 86.935165 -11.437475 24.513514 154.399796 -59.883835 -61.369587 91.046425
[L_front_hand03_01]
40 86.637497 -14.123976 -20.424902 -153.913849 58.118122 -62.702866 90.126129
41 86.637497 -14.123976 -20.424902 -153.913849 58.118122 -62.702866 90.126129
[L_front_hand01_02]
40 71.020905 -0.000179 0.000030 0.000334 -0.002323 -106.379684 71.020905
41 71.020905 -0.000179 0.000030 0.000334 -0.002323 -106.379684 71.020905
[L_front_hand02_02]
40 71.020927 -0.000119 0.000060 0.000334 -0.002323 -106.379684 71.020927
41 71.020927 -0.000119 0.000060 0.000334 -0.002323 -106.379684 71.020927
[L_front_hand03_02]
40 71.020905 -0.000060 0.000060 0.000334 -0.002323 -106.379684 71.020905
41 71.020905 -0.000060 0.000060 0.000334 -0.002323 -106.379684 71.020905
[R_forearm]
40 322.776428 -0.000060 0.000030 0.202103 0.065158 -108.062805 322.776428
41 322.776428 -0.000060 0.000030 0.201623 0.066628 -108.897781 322.776428
[R_front_hand]
40 238.847015 -0.006795 2.210259 -2.635298 -10.645461 -26.312506 238.857239
41 238.847015 -0.006795 2.210259 -2.635298 -10.645461 -26.312506 238.857239
[R_weapon_bone]
40 155.664093 0.002503 -0.000030 0.003487 0.001180 -90.988930 155.664078
41 155.664093 0.002503 -0.000030 0.003487 0.001180 -90.988930 155.664078
[R_front_hand01_01]
40 87.624611 14.231146 22.918642 -154.633499 -59.950634 61.746063 91.683487
41 87.624611 14.231146 22.918642 -154.633499 -59.950619 61.746044 91.683487
[R_front_hand02_01]
40 89.356956 14.367283 -19.491137 154.602661 58.302849 63.744389 92.579636
41 89.356956 14.367283 -19.491137 154.602661 58.302849 63.744389 92.579636
[R_front_hand03_01]
40 87.286232 -22.307278 -0.143439 0.162155 -0.423168 -75.767921 90.091743
41 87.286232 -22.307278 -0.143439 0.162155 -0.423168 -75.767921 90.091743
[R_front_hand01_02]
40 71.020905 0.000060 0.000119 0.002323 -0.000334 106.381714 71.020905
41 71.020905 0.000060 0.000119 0.002323 -0.000334 106.381714 71.020905
[R_front_hand02_02]
40 71.020844 -0.000030 -0.000119 0.002323 -0.000334 106.381714 71.020836
41 71.020844 -0.000030 -0.000119 0.002323 -0.000334 106.381714 71.020836
[R_front_hand03_02]
40 71.020905 0.000000 0.000030 0.002323 -0.000334 106.381714 71.020905
41 71.020905 0.000000 0.000030 0.002323 -0.000334 106.381714 71.020905
[null_rope01_connect]
40 328.732483 0.000000 -0.000238 -154.483307 -64.791321 -118.914375 328.732483
41 328.732483 0.000000 -0.000238 -155.409348 -65.261322 -114.011116 328.732483
[Rope1_Seg01]
40 0.000068 -0.000040 0.000270 51.462765 0.539306 -118.579506 0.000282
41 0.000069 -0.000040 0.000277 46.343369 5.016263 -121.104568 0.000289
[Rope1_Seg02]
40 139.999863 -0.000179 0.000000 7.510424 3.233546 1.820476 139.999863
41 139.999863 -0.000179 0.000000 7.938663 2.579097 3.602744 139.999863
[Rope1_Seg03]
40 139.999924 0.000060 -0.000060 6.132605 3.184018 1.163193 139.999924
41 139.999924 0.000060 -0.000060 8.008498 2.873774 3.258177 139.999924
[Rope1_Seg04]
40 139.999924 -0.000060 -0.000119 6.202784 3.732792 0.991915 139.999924
41 139.999924 -0.000060 -0.000119 8.934471 3.736109 3.152844 139.999924
[Rope1_Seg05]
40 139.999832 0.000119 -0.000060 5.795758 3.547430 1.187056 139.999832
41 139.999832 0.000119 -0.000060 5.762631 3.603620 1.060030 139.999832
[Rope1_Seg06]
40 139.999954 0.000119 -0.000060 2.650413 1.791853 0.458720 139.999954
41 139.999954 0.000119 -0.000060 2.309748 1.743982 0.195135 139.999954
[Rope1_Seg07]
40 139.999985 0.000060 0.000000 1.467389 1.087527 0.178816 139.999985
41 139.999985 0.000060 0.000000 1.484747 1.099832 0.181613 139.999985
[Rope1_Seg09]
40 121.602913 0.000119 -0.000089 -89.793175 -1.359789 0.847147 121.602913
41 121.602913 0.000119 -0.000089 -89.793175 -1.359789 0.847147 121.602913
[L_mid_hand01]
40 103.859421 1.038730 8.195221 130.544373 -67.584534 -38.866943 104.187431
41 103.859421 1.038730 8.195221 130.544373 -67.584534 -38.866943 104.187431
[L_mid_hand02]
40 105.572853 -4.139662 -10.864139 -168.923172 43.409309 -73.498886 106.211075
41 105.572853 -4.139662 -10.864139 -168.923172 43.409309 -73.498886 106.211075
[L_mid_hand03]
40 104.641464 17.579376 -3.913581 -6.012627 17.808174 74.893669 106.179977
41 104.641464 17.579376 -3.913581 -6.012627 17.808174 74.893669 106.179977
[null_rope02_connect]
40 328.732849 0.000179 -0.000119 -140.208725 68.099190 -35.150566 328.732849
41 328.732849 0.000179 -0.000119 -142.725479 69.204697 -40.898514 328.732849
[Rope2_Seg01]
40 0.000093 0.000113 0.000000 39.608303 2.484268 -36.509975 0.000146
41 0.000097 0.000113 0.000000 44.014473 6.160407 -33.359123 0.000149
[Rope2_Seg02]
40 139.999741 -0.000060 -0.000119 -24.473680 -5.595342 -8.523100 139.999756
41 139.999741 -0.000060 -0.000119 -22.004999 -7.667581 -7.735137 139.999756
[Rope2_Seg03]
40 140.000107 0.000030 0.000000 -8.432224 0.762011 -4.697598 140.000107
41 140.000107 0.000030 0.000000 -12.099293 -1.704374 -5.709399 140.000107
[Rope2_Seg04]
40 139.999802 0.000000 -0.000060 -8.359623 0.591499 -5.170821 139.999802
41 139.999802 0.000000 -0.000060 -9.633137 -0.564811 -5.362712 139.999802
[Rope2_Seg05]
40 139.999985 -0.000060 0.000119 -27.754326 -2.534818 -22.384954 139.999985
41 139.999985 -0.000060 0.000119 -27.833700 -2.702061 -21.852459 139.999985
[Rope2_Seg06]
40 139.999893 -0.000030 -0.000119 -11.784029 6.377333 -17.393166 139.999893
41 139.999893 -0.000030 -0.000119 -12.301979 6.513693 -17.844149 139.999893
[Rope2_Seg07]
40 139.999893 0.000060 -0.000060 -2.792273 4.144829 -6.513499 139.999893
41 139.999893 0.000060 -0.000060 -2.901859 4.219284 -6.673377 139.999893
[Rope2_Seg09]
40 121.338966 0.000089 -0.000060 33.793236 -1.359788 -0.847141 121.338966
41 121.338966 0.000089 -0.000060 33.793236 -1.359788 -0.847141 121.338966
[R_mid_hand01]
40 104.680779 11.144459 -10.335981 -16.212063 45.237247 70.462852 105.778534
41 104.680779 11.144459 -10.335981 -16.212063 45.237247 70.462852 105.778534
[R_mid_hand02]
40 104.070427 2.443552 8.231699 49.067387 -67.749794 39.286469 104.424065
41 104.070427 2.443552 8.231699 49.067368 -67.749771 39.286453 104.424065
[R_mid_hand03]
40 106.028137 -11.221827 -5.996406 -177.101105 15.551026 -76.585571 106.788818
41 106.028137 -11.221827 -5.996406 -177.101105 15.551026 -76.585571 106.788818
[spine02]
40 129.756927 0.001550 0.000119 0.360060 -4.044797 -12.915042 129.756927
41 129.756927 0.001550 0.000119 0.441489 -4.035974 -14.108904 129.756927
[spine03]
40 78.614029 0.082091 -4.898999 1.896494 3.831288 16.473042 78.766563
41 78.614037 0.082030 -4.899001 1.944224 3.805465 17.214581 78.766571
[pelvis]
40 169.435242 0.051022 0.000000 -0.060465 -0.180225 14.087913 169.435257
41 169.435242 0.051022 0.000000 -0.062829 -0.179415 15.594147 169.435257
[null_rope03_connect]
40 -1.257226 -2.466202 137.391083 156.329483 -89.380714 -94.429504 137.418976
41 -1.257226 -2.466202 137.391083 0.000000 -89.454636 60.331867 137.418976
[null_rope04_connect]
40 -1.259640 -2.480268 -137.844437 156.329483 -89.380714 -94.429504 137.872513
41 -1.259640 -2.480268 -137.844437 0.000000 -89.454636 60.331867 137.872513
[Rope3_Seg01]
40 -0.000025 0.000034 0.000253 17.991314 23.114883 -78.389465 0.000257
41 -0.000026 0.000035 0.000264 17.978094 23.061340 -78.417122 0.000267
[Rope3_Seg02]
40 139.999924 -0.000119 0.000060 -0.079533 0.617472 3.295564 139.999924
41 139.999924 -0.000119 0.000060 -0.077649 0.625661 3.295565 139.999924
[Rope3_Seg03]
40 139.999924 -0.000119 0.000119 -0.238380 0.832484 4.427552 139.999924
41 139.999924 -0.000119 0.000119 -0.236439 0.840647 4.424243 139.999924
[Rope3_Seg04]
40 139.999924 0.000119 0.000000 -1.033719 1.733117 9.285673 139.999924
41 139.999924 0.000119 0.000000 -1.027476 1.747570 9.293093 139.999924
[Rope3_Seg05]
40 139.999924 -0.000238 0.000060 1.153383 -1.224820 -7.132879 139.999924
41 139.999924 -0.000238 0.000060 1.152731 -1.217596 -7.115431 139.999924
[Rope3_Seg06]
40 139.999893 -0.000119 -0.000060 1.817271 -3.668731 -19.790945 139.999893
41 139.999893 -0.000119 -0.000060 1.817272 -3.668739 -19.790937 139.999893
[Rope3_Seg07]
40 139.999771 0.000060 -0.000119 0.075085 -2.256615 -10.759729 139.999771
41 139.999771 0.000060 -0.000119 0.075251 -2.257850 -10.762220 139.999771
[Rope3_Seg08]
40 139.999985 -0.000060 0.000000 -0.124504 -1.262934 -6.073488 139.999985
41 139.999985 -0.000060 0.000000 -0.124503 -1.262937 -6.073487 139.999985
[Rope3_Seg09]
40 90.185997 -0.000179 -0.000060 89.793228 -1.359877 -0.847183 90.185997
41 90.185997 -0.000179 -0.000060 89.793228 -1.359877 -0.847183 90.185997
[R_rear_hand01]
40 103.366196 -6.073594 -10.757982 -177.714203 24.565960 -73.910950 104.101845
41 103.366196 -6.073594 -10.757982 -177.714203 24.565960 -73.910950 104.101845
[R_rear_hand02]
40 100.509819 12.039542 -7.992327 -12.874834 36.868492 72.167213 101.543350
41 100.509819 12.039542 -7.992327 -12.874829 36.868488 72.167213 101.543350
[R_rear_hand03]
40 101.539970 5.215704 5.435467 71.484581 -71.816628 21.513813 101.819031
41 101.539970 5.215704 5.435467 71.484581 -71.816628 21.513813 101.819031
[Rope4_Seg01]
40 0.000000 0.000000 0.000000 -101.699234 20.100843 -109.115456 0.000000
41 0.000000 0.000000 0.000000 -101.672356 19.977652 -109.115555 0.000000
[Rope4_Seg02]
40 139.999985 0.000060 0.000119 -0.327791 -5.772558 -0.046181 139.999985
41 139.999985 0.000060 0.000119 -0.331524 -5.774962 -0.021231 139.999985
[Rope4_Seg03]
40 139.999924 0.000000 -0.000238 0.053789 -8.289509 -1.266716 139.999924
41 139.999924 0.000000 -0.000238 0.051703 -8.296958 -1.236821 139.999924
[Rope4_Seg04]
40 139.999985 0.000000 0.000119 1.118924 -15.581246 -5.349848 139.999985
41 139.999985 0.000000 0.000119 1.121930 -15.591302 -5.295471 139.999985
[Rope4_Seg05]
40 139.999802 -0.000060 -0.000119 2.704980 12.083786 13.600363 139.999802
41 139.999802 -0.000060 -0.000119 2.704980 12.083777 13.600364 139.999802
[Rope4_Seg06]
40 139.999924 0.000000 0.000060 0.630653 11.067431 9.045827 139.999924
41 139.999924 0.000000 0.000060 0.631660 11.067351 9.043436 139.999924
[Rope4_Seg07]
40 139.999802 0.000000 0.000000 -0.176401 3.133596 3.079523 139.999802
41 139.999802 0.000000 0.000000 -0.176401 3.133595 3.079524 139.999802
[Rope4_Seg08]
40 139.999924 0.000000 0.000119 -1.703357 1.748957 1.731846 139.999924
41 139.999924 0.000000 0.000119 -1.703357 1.748957 1.731847 139.999924
[Rope4_Seg09]
40 90.185791 0.000060 0.000060 -135.617828 2.228885 0.850567 90.185791
41 90.185791 0.000060 0.000060 -135.617828 2.228885 0.850567 90.185791
[L_rear_hand01]
40 101.696655 -8.392275 -7.654577 -12.874834 -36.868492 107.832779 102.329041
41 101.696655 -8.392275 -7.654577 -12.874829 -36.868488 107.832764 102.329041
[L_rear_hand02]
40 102.726799 -1.568258 5.773216 71.484581 71.816628 158.486160 102.900848
41 102.726799 -1.568258 5.773216 71.484581 71.816628 158.486160 102.900848
[L_rear_hand03]
40 104.552910 9.721220 -10.420293 -177.714203 -24.565960 -106.089035 105.519653
41 104.552910 9.721220 -10.420293 -177.714203 -24.565960 -106.089035 105.519653
